<svg width="2053" height="364" viewBox="0 0 2053 364" fill="none" xmlns="http://www.w3.org/2000/svg">
<g clip-path="url(#clip0_6_4)">
<rect width="2053" height="364" fill="white"/>
<path d="M450.6 310.4H345.8L329 360H257.4L359 79.2H438.2L539.8 360H467.4L450.6 310.4ZM433 257.6L398.2 154.8L363.8 257.6H433ZM675.922 79.2C705.522 79.2 731.389 85.0667 753.522 96.8C775.655 108.533 792.722 125.067 804.722 146.4C816.989 167.467 823.122 191.867 823.122 219.6C823.122 247.067 816.989 271.467 804.722 292.8C792.722 314.133 775.522 330.667 753.122 342.4C730.989 354.133 705.255 360 675.922 360H570.722V79.2H675.922ZM671.522 300.8C697.389 300.8 717.522 293.733 731.922 279.6C746.322 265.467 753.522 245.467 753.522 219.6C753.522 193.733 746.322 173.6 731.922 159.2C717.522 144.8 697.389 137.6 671.522 137.6H639.122V300.8H671.522ZM994.147 362.8C967.747 362.8 943.48 356.667 921.347 344.4C899.48 332.133 882.014 315.067 868.947 293.2C856.147 271.067 849.747 246.267 849.747 218.8C849.747 191.333 856.147 166.667 868.947 144.8C882.014 122.933 899.48 105.867 921.347 93.6C943.48 81.3333 967.747 75.2 994.147 75.2C1020.55 75.2 1044.68 81.3333 1066.55 93.6C1088.68 105.867 1106.01 122.933 1118.55 144.8C1131.35 166.667 1137.75 191.333 1137.75 218.8C1137.75 246.267 1131.35 271.067 1118.55 293.2C1105.75 315.067 1088.41 332.133 1066.55 344.4C1044.68 356.667 1020.55 362.8 994.147 362.8ZM994.147 300.4C1016.55 300.4 1034.41 292.933 1047.75 278C1061.35 263.067 1068.15 243.333 1068.15 218.8C1068.15 194 1061.35 174.267 1047.75 159.6C1034.41 144.667 1016.55 137.2 994.147 137.2C971.48 137.2 953.347 144.533 939.747 159.2C926.414 173.867 919.747 193.733 919.747 218.8C919.747 243.6 926.414 263.467 939.747 278.4C953.347 293.067 971.48 300.4 994.147 300.4ZM1164.2 219.2C1164.2 191.467 1170.2 166.8 1182.2 145.2C1194.2 123.333 1210.87 106.4 1232.2 94.4C1253.8 82.1333 1278.2 76 1305.4 76C1338.73 76 1367.27 84.8 1391 102.4C1414.73 120 1430.6 144 1438.6 174.4H1363.4C1357.8 162.667 1349.8 153.733 1339.4 147.6C1329.27 141.467 1317.67 138.4 1304.6 138.4C1283.53 138.4 1266.47 145.733 1253.4 160.4C1240.33 175.067 1233.8 194.667 1233.8 219.2C1233.8 243.733 1240.33 263.333 1253.4 278C1266.47 292.667 1283.53 300 1304.6 300C1317.67 300 1329.27 296.933 1339.4 290.8C1349.8 284.667 1357.8 275.733 1363.4 264H1438.6C1430.6 294.4 1414.73 318.4 1391 336C1367.27 353.333 1338.73 362 1305.4 362C1278.2 362 1253.8 356 1232.2 344C1210.87 331.733 1194.2 314.8 1182.2 293.2C1170.2 271.6 1164.2 246.933 1164.2 219.2ZM1655.29 310.4H1550.49L1533.69 360H1462.09L1563.69 79.2H1642.89L1744.49 360H1672.09L1655.29 310.4ZM1637.69 257.6L1602.89 154.8L1568.49 257.6H1637.69ZM1523.29 59.6C1529.69 20.1333 1548.09 0.399981 1578.49 0.399981C1584.35 0.399981 1589.42 1.33332 1593.69 3.19999C1598.22 4.79999 1603.69 7.33332 1610.09 10.8C1614.89 13.4667 1618.75 15.4667 1621.69 16.8C1624.62 17.8667 1627.69 18.4 1630.89 18.4C1640.75 18.4 1646.49 12.4 1648.09 0.399981H1683.29C1676.89 39.8666 1658.49 59.6 1628.09 59.6C1622.22 59.6 1617.02 58.8 1612.49 57.2C1608.22 55.3333 1602.89 52.6666 1596.49 49.2C1591.69 46.5333 1587.82 44.6666 1584.89 43.6C1581.95 42.2666 1578.89 41.6 1575.69 41.6C1565.82 41.6 1559.95 47.6 1558.09 59.6H1523.29ZM1908.21 362.8C1881.81 362.8 1857.54 356.667 1835.41 344.4C1813.54 332.133 1796.08 315.067 1783.01 293.2C1770.21 271.067 1763.81 246.267 1763.81 218.8C1763.81 191.333 1770.21 166.667 1783.01 144.8C1796.08 122.933 1813.54 105.867 1835.41 93.6C1857.54 81.3333 1881.81 75.2 1908.21 75.2C1934.61 75.2 1958.74 81.3333 1980.61 93.6C2002.74 105.867 2020.08 122.933 2032.61 144.8C2045.41 166.667 2051.81 191.333 2051.81 218.8C2051.81 246.267 2045.41 271.067 2032.61 293.2C2019.81 315.067 2002.48 332.133 1980.61 344.4C1958.74 356.667 1934.61 362.8 1908.21 362.8ZM1908.21 300.4C1930.61 300.4 1948.48 292.933 1961.81 278C1975.41 263.067 1982.21 243.333 1982.21 218.8C1982.21 194 1975.41 174.267 1961.81 159.6C1948.48 144.667 1930.61 137.2 1908.21 137.2C1885.54 137.2 1867.41 144.533 1853.81 159.2C1840.48 173.867 1833.81 193.733 1833.81 218.8C1833.81 243.6 1840.48 263.467 1853.81 278.4C1867.41 293.067 1885.54 300.4 1908.21 300.4Z" fill="url(#paint0_linear_6_4)"/>
<g clip-path="url(#clip1_6_4)">
<path d="M85.9982 208.976C105.967 208.976 122.21 187.179 122.21 160.38C122.21 133.583 105.967 111.78 85.9982 111.78C66.0348 111.78 49.7906 133.582 49.7906 160.38C49.7906 187.179 66.0348 208.976 85.9982 208.976Z" fill="url(#paint1_linear_6_4)"/>
<path d="M193.403 256.248C192.661 255.236 191.949 254.282 191.568 253.462C183.471 236.13 161.276 215.698 125.319 215.19L123.935 215.182C88.5301 215.182 66.5006 234.533 57.6868 252.65C57.3824 253.27 56.7128 254.074 56.0034 254.924C55.1639 255.921 54.3334 256.94 53.6234 258.048C46.1777 269.631 42.3815 282.672 42.9416 294.767C43.5286 307.607 48.9044 317.92 58.0527 323.803C61.749 326.178 65.7374 327.374 69.922 327.374C78.5506 327.374 86.4506 322.514 95.6053 316.885C101.426 313.298 107.438 309.596 114.116 306.826C114.865 306.579 117.931 306.203 122.947 306.203C128.911 306.203 133.194 306.733 134.11 307.049C140.629 309.927 146.354 313.702 151.891 317.346C160.38 322.941 168.395 328.221 177.092 328.221C180.824 328.221 184.441 327.236 187.854 325.296C206.683 314.599 210.27 285.25 195.854 259.877C195.131 258.603 194.269 257.415 193.403 256.248Z" fill="url(#paint2_linear_6_4)"/>
<path d="M162.996 208.976C182.956 208.976 199.202 187.179 199.202 160.38C199.202 133.583 182.956 111.78 162.996 111.78C143.025 111.78 126.783 133.582 126.783 160.38C126.783 187.179 143.025 208.976 162.996 208.976Z" fill="url(#paint3_linear_6_4)"/>
<path d="M222.464 184.022C206.459 184.022 193.934 200.619 193.934 221.809C193.934 242.988 206.467 259.588 222.464 259.588C238.459 259.588 251 242.988 251 221.809C251 200.62 238.467 184.022 222.464 184.022Z" fill="url(#paint4_linear_6_4)"/>
<path d="M58.0636 221.809C58.0636 200.62 45.5305 184.022 29.5331 184.022C13.5351 184.022 1 200.62 1 221.809C1 242.988 13.5351 259.588 29.5331 259.588C45.5311 259.588 58.0636 242.988 58.0636 221.809Z" fill="url(#paint5_linear_6_4)"/>
</g>
</g>
<defs>
<linearGradient id="paint0_linear_6_4" x1="1158.5" y1="-80" x2="1158.5" y2="520" gradientUnits="userSpaceOnUse">
<stop stop-color="#7F00FF"/>
<stop offset="1" stop-color="#8B5CF6"/>
</linearGradient>
<linearGradient id="paint1_linear_6_4" x1="86.0001" y1="111.78" x2="86.0001" y2="208.976" gradientUnits="userSpaceOnUse">
<stop stop-color="#7F00FF"/>
<stop offset="1" stop-color="#8B5CF6"/>
</linearGradient>
<linearGradient id="paint2_linear_6_4" x1="123.792" y1="215.182" x2="123.792" y2="328.221" gradientUnits="userSpaceOnUse">
<stop stop-color="#7F00FF"/>
<stop offset="1" stop-color="#8B5CF6"/>
</linearGradient>
<linearGradient id="paint3_linear_6_4" x1="162.993" y1="111.78" x2="162.993" y2="208.976" gradientUnits="userSpaceOnUse">
<stop stop-color="#7F00FF"/>
<stop offset="1" stop-color="#8B5CF6"/>
</linearGradient>
<linearGradient id="paint4_linear_6_4" x1="222.467" y1="184.022" x2="222.467" y2="259.588" gradientUnits="userSpaceOnUse">
<stop stop-color="#7F00FF"/>
<stop offset="1" stop-color="#8B5CF6"/>
</linearGradient>
<linearGradient id="paint5_linear_6_4" x1="29.5318" y1="184.022" x2="29.5318" y2="259.588" gradientUnits="userSpaceOnUse">
<stop stop-color="#7F00FF"/>
<stop offset="1" stop-color="#8B5CF6"/>
</linearGradient>
<clipPath id="clip0_6_4">
<rect width="2053" height="364" fill="white"/>
</clipPath>
<clipPath id="clip1_6_4">
<rect width="250" height="250" fill="white" transform="translate(1 95)"/>
</clipPath>
</defs>
</svg>
